<svg viewBox="0 0 800 306" fill="none" xmlns="http://www.w3.org/2000/svg">
    <path d="M0.00390625 42.5C0.00390625 19.0279 19.0318 0 42.5039 0H778.754C790.49 0 800.004 9.51395 800.004 21.25V263.5C800.004 286.972 780.976 306 757.504 306H21.2539C9.51787 306 0.00390625 296.486 0.00390625 284.75V42.5Z"
          fill="#F3D74B"/>
    <path d="M377.725 263.596C377.936 263.658 378.099 263.779 378.213 263.958C378.322 264.157 378.345 264.362 378.283 264.573L372.806 283.225C372.744 283.437 372.616 283.587 372.423 283.676C372.225 283.784 372.02 283.808 371.809 283.746L367.981 282.622C367.635 282.52 367.404 282.348 367.288 282.106C367.172 281.863 367.096 281.695 367.061 281.601L364.805 272.247L357.85 278.896C357.77 278.956 357.615 279.057 357.386 279.198C357.157 279.339 356.87 279.359 356.524 279.258L352.696 278.134C352.485 278.072 352.335 277.944 352.245 277.751C352.131 277.572 352.105 277.377 352.167 277.165L357.644 258.513C357.706 258.302 357.836 258.142 358.035 258.034C358.209 257.939 358.401 257.922 358.612 257.984L362.93 259.252C363.141 259.314 363.304 259.435 363.418 259.614C363.507 259.807 363.521 260.009 363.459 260.22L360.72 269.546L364.646 265.759C364.787 265.634 364.957 265.517 365.156 265.408C365.354 265.3 365.597 265.288 365.885 265.373L367.641 265.888C367.91 265.967 368.098 266.106 368.207 266.304C368.315 266.503 368.395 266.693 368.446 266.875L369.701 272.183L372.439 262.857C372.501 262.646 372.632 262.486 372.83 262.378C373.004 262.283 373.197 262.267 373.408 262.329L377.725 263.596Z"
          fill="#375BB6"/>
    <path d="M316.907 227.995C317.628 228.826 318.117 229.712 318.376 230.652C318.622 231.577 318.644 232.457 318.442 233.294C318.213 234.128 317.765 234.833 317.1 235.409C316.012 236.352 314.778 236.654 313.399 236.314C311.991 235.973 310.525 235.166 308.999 233.894L306.332 231.641L306.173 231.778C305.705 232.184 305.422 232.561 305.327 232.909C305.203 233.254 305.337 233.654 305.73 234.107C306.005 234.425 306.288 234.629 306.579 234.721C306.871 234.813 307.202 234.843 307.572 234.813C307.87 234.82 308.123 234.945 308.333 235.186L311.103 238.383C311.247 238.55 311.313 238.717 311.301 238.887C311.288 239.056 311.2 239.198 311.036 239.314C310.751 239.535 310.335 239.697 309.789 239.799C309.228 239.915 308.584 239.904 307.856 239.767C307.1 239.628 306.301 239.302 305.459 238.788C304.602 238.287 303.741 237.538 302.876 236.54C301.999 235.527 301.359 234.56 300.957 233.638C300.555 232.716 300.355 231.844 300.357 231.022C300.359 230.2 300.557 229.42 300.95 228.682C301.328 227.958 301.872 227.288 302.583 226.672L309.294 220.857C309.46 220.713 309.656 220.649 309.882 220.665C310.079 220.679 310.25 220.77 310.394 220.936L313.262 224.246C313.393 224.397 313.458 224.579 313.457 224.792C313.441 225.017 313.35 225.202 313.183 225.346L312.458 225.975C312.931 225.91 313.424 225.945 313.939 226.081C314.441 226.202 314.95 226.423 315.466 226.743C315.968 227.048 316.449 227.466 316.907 227.995ZM312.798 229.253C312.47 228.875 312.113 228.616 311.726 228.475C311.311 228.332 310.865 228.321 310.389 228.443C309.912 228.565 309.424 228.842 308.926 229.274L308.767 229.412L310.499 230.769C311.089 231.236 311.588 231.492 311.996 231.535C312.389 231.592 312.707 231.515 312.949 231.306C313.13 231.148 313.243 230.958 313.287 230.734C313.332 230.511 313.321 230.269 313.254 230.009C313.159 229.747 313.007 229.495 312.798 229.253Z"
          fill="#375BB6"/>
    <path d="M290.307 178.486C290.339 178.704 290.296 178.902 290.181 179.08C290.042 179.242 289.864 179.338 289.646 179.369L275.749 181.367C275.531 181.399 275.343 181.355 275.185 181.236C275.004 181.101 274.897 180.924 274.866 180.706L274.268 176.549C274.237 176.331 274.291 176.142 274.429 175.98C274.545 175.802 274.712 175.697 274.929 175.666L285.055 174.21L284.684 171.627L274.558 173.083C274.34 173.114 274.152 173.07 273.994 172.952C273.812 172.816 273.706 172.639 273.675 172.422L273.124 168.591C273.096 168.393 273.149 168.203 273.285 168.022C273.401 167.844 273.567 167.739 273.785 167.708L283.911 166.252L283.54 163.669L273.414 165.124C273.196 165.156 273.008 165.112 272.849 164.993C272.668 164.858 272.562 164.681 272.531 164.463L271.933 160.306C271.902 160.088 271.955 159.899 272.094 159.738C272.21 159.559 272.376 159.454 272.594 159.423L286.491 157.425C286.709 157.394 286.908 157.446 287.09 157.581C287.248 157.7 287.343 157.868 287.374 158.086L290.307 178.486Z"
          fill="black"/>
    <path d="M294.867 112.695C294.784 112.877 294.645 113.011 294.451 113.099C294.248 113.16 294.046 113.144 293.846 113.053L281.074 107.22C280.874 107.129 280.74 106.991 280.67 106.805C280.591 106.593 280.597 106.387 280.689 106.187L282.533 102.148C282.625 101.948 282.776 101.808 282.988 101.729C283.182 101.642 283.379 101.644 283.579 101.735L292.858 105.973L291.651 107.17L285.452 96.9841C285.348 96.8266 285.289 96.6676 285.274 96.5071C285.242 96.3382 285.267 96.1628 285.35 95.9808L286.995 92.3787C287.086 92.1786 287.234 92.0481 287.437 91.9872C287.631 91.8998 287.828 91.9018 288.028 91.9932L300.8 97.8256C301 97.917 301.139 98.0687 301.218 98.2807C301.288 98.4662 301.276 98.6591 301.185 98.8592L299.328 102.925C299.245 103.107 299.107 103.242 298.913 103.329C298.701 103.408 298.495 103.402 298.295 103.311L289.153 99.1358L290.208 97.8367L296.422 108.062C296.526 108.219 296.59 108.392 296.614 108.579C296.629 108.739 296.599 108.902 296.524 109.065L294.867 112.695Z"
          fill="black"/>
    <path d="M333.332 61.9106C333.147 62.0296 332.949 62.0734 332.739 62.0421C332.534 61.9832 332.373 61.8612 332.254 61.6761L324.663 49.8649C324.544 49.6799 324.506 49.4906 324.548 49.2971C324.596 49.076 324.713 48.906 324.898 48.7871L328.633 46.3866C328.818 46.2677 329.021 46.2323 329.242 46.2804C329.452 46.3116 329.617 46.4198 329.736 46.6049L332.234 50.4915L335.742 48.237L333.244 44.3504C333.125 44.1653 333.087 43.9761 333.129 43.7826C333.177 43.5615 333.293 43.3915 333.478 43.2725L337.239 40.8559C337.424 40.7369 337.619 40.7069 337.823 40.7658C338.033 40.7971 338.198 40.9053 338.317 41.0903L345.907 52.9015C346.026 53.0866 346.062 53.2897 346.014 53.5108C345.972 53.7043 345.858 53.8605 345.673 53.9794L341.912 56.3961C341.727 56.515 341.53 56.5589 341.319 56.5276C341.115 56.4687 340.954 56.3467 340.835 56.1616L338.223 52.0984L334.715 54.3528L337.327 58.4161C337.446 58.6012 337.481 58.8042 337.433 59.0253C337.374 59.2296 337.252 59.3912 337.067 59.5102L333.332 61.9106Z"
          fill="black"/>
    <path d="M398.797 40.3C397.697 40.3 396.707 40.09 395.827 39.67C394.967 39.25 394.287 38.69 393.787 37.99C393.307 37.27 393.067 36.47 393.067 35.59C393.067 34.15 393.647 33.02 394.807 32.2C395.987 31.36 397.557 30.78 399.517 30.46L402.967 29.92V29.71C402.967 29.09 402.867 28.63 402.667 28.33C402.487 28.01 402.097 27.85 401.497 27.85C401.077 27.85 400.737 27.93 400.477 28.09C400.217 28.25 399.977 28.48 399.757 28.78C399.557 29 399.297 29.11 398.977 29.11L394.747 29.11C394.527 29.11 394.357 29.05 394.237 28.93C394.117 28.81 394.067 28.65 394.087 28.45C394.107 28.09 394.257 27.67 394.537 27.19C394.817 26.69 395.247 26.21 395.827 25.75C396.427 25.27 397.197 24.88 398.137 24.58C399.077 24.26 400.207 24.1 401.527 24.1C402.867 24.1 404.017 24.25 404.977 24.55C405.937 24.85 406.727 25.27 407.347 25.81C407.967 26.35 408.427 27.01 408.727 27.79C409.027 28.55 409.177 29.4 409.177 30.34V39.22C409.177 39.44 409.097 39.63 408.937 39.79C408.797 39.93 408.617 40 408.397 40L404.017 40C403.817 40 403.637 39.93 403.477 39.79C403.317 39.63 403.237 39.44 403.237 39.22V38.26C402.977 38.66 402.627 39.01 402.187 39.31C401.767 39.61 401.267 39.85 400.687 40.03C400.127 40.21 399.497 40.3 398.797 40.3ZM400.537 36.37C401.037 36.37 401.467 36.27 401.827 36.07C402.207 35.85 402.507 35.52 402.727 35.08C402.947 34.64 403.057 34.09 403.057 33.43V33.22L400.897 33.64C400.157 33.78 399.637 33.99 399.337 34.27C399.037 34.53 398.887 34.82 398.887 35.14C398.887 35.38 398.957 35.59 399.097 35.77C399.237 35.95 399.427 36.1 399.667 36.22C399.927 36.32 400.217 36.37 400.537 36.37Z"
          fill="black"/>
    <path d="M453.647 52.8528C453.462 52.7338 453.34 52.5722 453.281 52.3679C453.233 52.1468 453.268 51.9437 453.387 51.7587L463.897 35.4047C464.016 35.2196 464.181 35.1115 464.391 35.0802C464.612 35.0321 464.815 35.0675 465 35.1864L468.357 37.3436C468.66 37.5382 468.833 37.7683 468.876 38.0339C468.919 38.2995 468.944 38.4821 468.952 38.5819L468.481 48.193L477.028 43.772C477.121 43.7371 477.298 43.6842 477.558 43.6133C477.817 43.5424 478.098 43.6042 478.401 43.7989L481.758 45.956C481.943 46.075 482.051 46.2396 482.082 46.4499C482.141 46.6541 482.111 46.8488 481.992 47.0339L471.482 63.3879C471.363 63.5729 471.193 63.6895 470.972 63.7376C470.779 63.7797 470.589 63.7413 470.404 63.6223L466.619 61.1895C466.434 61.0705 466.312 60.9089 466.253 60.7046C466.222 60.4943 466.265 60.2966 466.384 60.1116L471.639 51.9346L466.805 54.4624C466.635 54.5429 466.439 54.6073 466.218 54.6554C465.997 54.7035 465.76 54.6464 465.507 54.4842L463.968 53.4948C463.732 53.3435 463.591 53.1572 463.543 52.9361C463.494 52.715 463.472 52.5101 463.474 52.3215L463.765 46.8742L458.51 55.0512C458.391 55.2363 458.221 55.3528 458 55.4009C457.807 55.443 457.617 55.4046 457.432 55.2857L453.647 52.8528Z"
          fill="#375BB6"/>
    <path d="M501.972 104.147C501.515 103.147 501.295 102.159 501.311 101.184C501.336 100.227 501.563 99.376 501.992 98.6304C502.448 97.8947 503.076 97.344 503.876 96.9785C505.186 96.3803 506.455 96.4384 507.683 97.153C508.937 97.8774 510.117 99.0646 511.222 100.715L513.146 103.628L513.337 103.541C513.901 103.284 514.278 103.002 514.468 102.695C514.684 102.398 514.668 101.977 514.419 101.431C514.244 101.049 514.03 100.773 513.777 100.603C513.523 100.433 513.214 100.31 512.85 100.235C512.567 100.144 512.359 99.9536 512.226 99.6625L510.468 95.8148C510.377 95.6146 510.361 95.4351 510.42 95.2761C510.48 95.1171 510.604 95.0051 510.795 94.9402C511.13 94.8089 511.575 94.7708 512.128 94.8261C512.699 94.8731 513.314 95.0649 513.973 95.4014C514.659 95.7478 515.334 96.2862 515.997 97.0166C516.679 97.7387 517.294 98.7001 517.842 99.9008C518.399 101.12 518.74 102.228 518.866 103.226C518.992 104.224 518.938 105.117 518.704 105.905C518.471 106.694 518.062 107.386 517.477 107.983C516.91 108.572 516.199 109.061 515.344 109.452L507.267 113.141C507.066 113.232 506.86 113.238 506.648 113.159C506.463 113.09 506.324 112.955 506.233 112.755L504.413 108.771C504.33 108.589 504.319 108.396 504.38 108.192C504.459 107.98 504.599 107.829 504.799 107.737L505.672 107.339C505.2 107.268 504.737 107.095 504.281 106.82C503.834 106.562 503.408 106.207 503.003 105.754C502.606 105.32 502.263 104.784 501.972 104.147ZM506.27 104.097C506.477 104.552 506.747 104.902 507.079 105.146C507.437 105.401 507.861 105.536 508.353 105.554C508.845 105.571 509.391 105.443 509.991 105.168L510.182 105.081L508.903 103.291C508.468 102.676 508.061 102.29 507.682 102.134C507.32 101.969 506.994 101.953 506.703 102.086C506.485 102.185 506.323 102.336 506.217 102.538C506.112 102.74 506.054 102.976 506.045 103.244C506.062 103.522 506.137 103.806 506.27 104.097Z"
          fill="#375BB6"/>
    <path d="M513.068 162.464C513.099 162.246 513.196 162.068 513.357 161.93C513.535 161.814 513.733 161.772 513.951 161.803L527.848 163.801C528.066 163.833 528.234 163.927 528.353 164.086C528.488 164.267 528.541 164.467 528.509 164.684L527.459 171.989C527.092 174.543 526.421 176.326 525.447 177.337C524.471 178.369 523.289 178.785 521.904 178.586C521.211 178.486 520.647 178.264 520.211 177.918C519.776 177.573 519.423 177.148 519.152 176.644C518.747 177.213 518.24 177.645 517.632 177.941C517.023 178.238 516.323 178.329 515.532 178.215C514.126 178.013 513.08 177.277 512.394 176.006C511.728 174.738 511.578 172.828 511.945 170.274L513.068 162.464ZM515.978 167.944L515.611 170.498C515.542 170.973 515.567 171.36 515.686 171.66C515.821 171.983 516.087 172.173 516.483 172.23C516.899 172.289 517.206 172.192 517.404 171.938C517.599 171.703 517.734 171.328 517.808 170.814L518.175 168.26L515.978 167.944ZM521.976 168.807L521.613 171.331C521.542 171.825 521.577 172.214 521.718 172.497C521.857 172.8 522.124 172.98 522.52 173.037C522.916 173.094 523.213 172.995 523.411 172.741C523.609 172.486 523.742 172.122 523.811 171.647L524.173 169.122L521.976 168.807Z"
          fill="black"/>
    <path d="M490.066 221.642C490.21 221.476 490.388 221.378 490.598 221.349C490.811 221.348 491 221.42 491.166 221.564L501.777 230.758C501.943 230.902 502.034 231.073 502.048 231.27C502.064 231.496 502 231.692 501.856 231.858L499.007 235.146C498.863 235.312 498.685 235.396 498.472 235.397C498.262 235.426 498.073 235.368 497.907 235.224L494.415 232.199L493.669 233.061L495.439 238.485C495.489 238.58 495.513 238.72 495.512 238.905C495.511 239.089 495.432 239.272 495.274 239.453L492.131 243.081C492 243.232 491.842 243.307 491.658 243.306C491.476 243.334 491.317 243.288 491.18 243.17C491.12 243.118 491.073 243.05 491.038 242.968C490.991 242.9 490.958 242.832 490.939 242.762L488.635 235.526L480.31 234.505C480.167 234.487 480.042 234.432 479.937 234.34C479.8 234.223 479.725 234.065 479.711 233.867C479.699 233.698 479.759 233.538 479.89 233.387L483.328 229.419C483.485 229.238 483.639 229.12 483.792 229.067C483.959 229.027 484.128 229.014 484.299 229.031L490.236 229.967L490.924 229.174L487.296 226.03C487.13 225.886 487.039 225.701 487.023 225.476C487.008 225.278 487.073 225.096 487.217 224.93L490.066 221.642Z"
          fill="black"/>
    <path d="M439.451 258.868C439.643 258.811 439.835 258.828 440.028 258.917C440.207 259.031 440.328 259.194 440.39 259.405L444.346 272.876C444.408 273.087 444.391 273.28 444.296 273.453C444.188 273.652 444.028 273.782 443.817 273.844L439.557 275.095C439.346 275.157 439.141 275.134 438.942 275.026C438.749 274.936 438.622 274.786 438.56 274.575L435.686 264.788L437.381 264.916L433.742 276.271C433.692 276.453 433.61 276.602 433.498 276.718C433.392 276.853 433.243 276.949 433.051 277.005L429.252 278.121C429.041 278.183 428.845 278.157 428.666 278.043C428.473 277.954 428.346 277.803 428.284 277.592L424.328 264.121C424.266 263.91 424.289 263.705 424.398 263.507C424.493 263.333 424.646 263.215 424.857 263.153L429.146 261.894C429.338 261.837 429.53 261.854 429.723 261.943C429.922 262.051 430.052 262.211 430.114 262.422L432.945 272.065L431.273 272.119L434.931 260.726C434.982 260.545 435.07 260.383 435.196 260.242C435.307 260.126 435.45 260.043 435.622 259.992L439.451 258.868Z"
          fill="black"/>
    <rect x="757.004" width="43" height="43" fill="black"/>
    <rect x="762.004" width="38" height="38" fill="#B3271A"/>
    <rect x="771.004" width="29" height="29" fill="#F3D74B"/>
    <rect x="785.004" width="15" height="15" fill="#375BB6"/>
    <rect x="43" y="306" width="43" height="43" transform="rotate(-180 43 306)" fill="black"/>
    <rect x="38" y="306" width="38" height="38" transform="rotate(-180 38 306)" fill="#B3271A"/>
    <rect x="29" y="306" width="29" height="29" transform="rotate(-180 29 306)" fill="#F3D74B"/>
    <rect x="15" y="306" width="15" height="15" transform="rotate(-180 15 306)" fill="#375BB6"/>
    <circle cx="400.004" cy="152" r="100" fill="black"/>
    <rect x="345.719" y="96.286" width="9.16669" height="9.16669" fill="black"/>
    <rect x="350.302" y="96.2856" width="9.16669" height="9.16669" fill="#375BB6"/>
    <rect x="350.302" y="100.869" width="9.16669" height="9.16669" fill="#F3D74B"/>
    <rect x="345.719" y="100.869" width="9.16669" height="9.16669" fill="#B3271A"/>
    <rect x="345.719" y="110.036" width="9.16669" height="9.16669" fill="black"/>
    <rect x="350.302" y="110.036" width="9.16669" height="9.16669" fill="#375BB6"/>
    <rect x="350.302" y="114.619" width="9.16669" height="9.16669" fill="#F3D74B"/>
    <rect x="345.719" y="114.619" width="9.16669" height="9.16669" fill="#B3271A"/>
    <rect x="345.719" y="110.036" width="9.16669" height="9.16669" fill="black"/>
    <rect x="350.302" y="110.036" width="9.16669" height="9.16669" fill="#375BB6"/>
    <rect x="350.302" y="114.619" width="9.16669" height="9.16669" fill="#F3D74B"/>
    <rect x="345.719" y="114.619" width="9.16669" height="9.16669" fill="#B3271A"/>
    <rect x="345.719" y="123.786" width="9.16669" height="9.16669" fill="black"/>
    <rect x="350.302" y="123.786" width="9.16669" height="9.16669" fill="#375BB6"/>
    <rect x="350.302" y="128.369" width="9.16669" height="9.16669" fill="#F3D74B"/>
    <rect x="345.719" y="128.369" width="9.16669" height="9.16669" fill="#B3271A"/>
    <rect x="359.468" y="96.2856" width="9.16669" height="9.16669" fill="black"/>
    <rect x="364.05" y="96.2856" width="9.16669" height="9.16669" fill="#375BB6"/>
    <rect x="364.05" y="100.869" width="9.16669" height="9.16669" fill="#F3D74B"/>
    <rect x="359.468" y="100.869" width="9.16669" height="9.16669" fill="#B3271A"/>
    <rect x="359.468" y="110.036" width="9.16669" height="9.16669" fill="black"/>
    <rect x="364.05" y="110.036" width="9.16669" height="9.16669" fill="#375BB6"/>
    <rect x="364.05" y="114.619" width="9.16669" height="9.16669" fill="#F3D74B"/>
    <rect x="359.468" y="114.619" width="9.16669" height="9.16669" fill="#B3271A"/>
    <rect x="359.468" y="110.036" width="9.16669" height="9.16669" fill="black"/>
    <rect x="364.05" y="110.036" width="9.16669" height="9.16669" fill="#375BB6"/>
    <rect x="364.05" y="114.619" width="9.16669" height="9.16669" fill="#F3D74B"/>
    <rect x="359.468" y="114.619" width="9.16669" height="9.16669" fill="#B3271A"/>
    <rect x="359.468" y="123.786" width="9.16669" height="9.16669" fill="black"/>
    <rect x="364.05" y="123.786" width="9.16669" height="9.16669" fill="#375BB6"/>
    <rect x="364.05" y="128.369" width="9.16669" height="9.16669" fill="#F3D74B"/>
    <rect x="359.468" y="128.369" width="9.16669" height="9.16669" fill="#B3271A"/>
    <rect x="373.218" y="96.2856" width="9.16669" height="9.16669" fill="black"/>
    <rect x="377.801" y="96.2856" width="9.16669" height="9.16669" fill="#375BB6"/>
    <rect x="377.801" y="100.869" width="9.16669" height="9.16669" fill="#F3D74B"/>
    <rect x="373.218" y="100.869" width="9.16669" height="9.16669" fill="#B3271A"/>
    <rect x="373.218" y="110.036" width="9.16669" height="9.16669" fill="black"/>
    <rect x="377.801" y="110.036" width="9.16669" height="9.16669" fill="#375BB6"/>
    <rect x="377.801" y="114.619" width="9.16669" height="9.16669" fill="#F3D74B"/>
    <rect x="373.218" y="114.619" width="9.16669" height="9.16669" fill="#B3271A"/>
    <rect x="373.218" y="110.036" width="9.16669" height="9.16669" fill="black"/>
    <rect x="377.801" y="110.036" width="9.16669" height="9.16669" fill="#375BB6"/>
    <rect x="377.801" y="114.619" width="9.16669" height="9.16669" fill="#F3D74B"/>
    <rect x="373.218" y="114.619" width="9.16669" height="9.16669" fill="#B3271A"/>
    <rect x="373.218" y="123.786" width="9.16669" height="9.16669" fill="black"/>
    <rect x="377.801" y="123.786" width="9.16669" height="9.16669" fill="#375BB6"/>
    <rect x="377.801" y="128.369" width="9.16669" height="9.16669" fill="#F3D74B"/>
    <rect x="373.218" y="128.369" width="9.16669" height="9.16669" fill="#B3271A"/>
    <rect x="386.969" y="96.2856" width="9.16669" height="9.16669" fill="black"/>
    <rect x="391.552" y="96.2856" width="9.16669" height="9.16669" fill="#375BB6"/>
    <rect x="391.552" y="100.869" width="9.16669" height="9.16669" fill="#F3D74B"/>
    <rect x="386.969" y="100.869" width="9.16669" height="9.16669" fill="#B3271A"/>
    <rect x="386.969" y="110.036" width="9.16669" height="9.16669" fill="black"/>
    <rect x="391.552" y="110.036" width="9.16669" height="9.16669" fill="#375BB6"/>
    <rect x="391.552" y="114.619" width="9.16669" height="9.16669" fill="#F3D74B"/>
    <rect x="386.969" y="114.619" width="9.16669" height="9.16669" fill="#B3271A"/>
    <rect x="386.969" y="110.036" width="9.16669" height="9.16669" fill="black"/>
    <rect x="391.552" y="110.036" width="9.16669" height="9.16669" fill="#375BB6"/>
    <rect x="391.552" y="114.619" width="9.16669" height="9.16669" fill="#F3D74B"/>
    <rect x="386.969" y="114.619" width="9.16669" height="9.16669" fill="#B3271A"/>
    <rect x="386.969" y="123.786" width="9.16669" height="9.16669" fill="black"/>
    <rect x="391.552" y="123.786" width="9.16669" height="9.16669" fill="#375BB6"/>
    <rect x="391.552" y="128.369" width="9.16669" height="9.16669" fill="#F3D74B"/>
    <rect x="386.969" y="128.369" width="9.16669" height="9.16669" fill="#B3271A"/>
    <rect x="400.719" y="96.2856" width="9.16669" height="9.16669" fill="black"/>
    <rect x="405.302" y="96.2856" width="9.16669" height="9.16669" fill="#375BB6"/>
    <rect x="405.302" y="100.869" width="9.16669" height="9.16669" fill="#F3D74B"/>
    <rect x="400.719" y="100.869" width="9.16669" height="9.16669" fill="#B3271A"/>
    <rect x="400.719" y="110.036" width="9.16669" height="9.16669" fill="black"/>
    <rect x="405.302" y="110.036" width="9.16669" height="9.16669" fill="#375BB6"/>
    <rect x="405.302" y="114.619" width="9.16669" height="9.16669" fill="#F3D74B"/>
    <rect x="400.719" y="114.619" width="9.16669" height="9.16669" fill="#B3271A"/>
    <rect x="400.719" y="110.036" width="9.16669" height="9.16669" fill="black"/>
    <rect x="405.302" y="110.036" width="9.16669" height="9.16669" fill="#375BB6"/>
    <rect x="405.302" y="114.619" width="9.16669" height="9.16669" fill="#F3D74B"/>
    <rect x="400.719" y="114.619" width="9.16669" height="9.16669" fill="#B3271A"/>
    <rect x="400.719" y="123.786" width="9.16669" height="9.16669" fill="black"/>
    <rect x="405.302" y="123.786" width="9.16669" height="9.16669" fill="#375BB6"/>
    <rect x="405.302" y="128.369" width="9.16669" height="9.16669" fill="#F3D74B"/>
    <rect x="400.719" y="128.369" width="9.16669" height="9.16669" fill="#B3271A"/>
    <rect x="414.469" y="96.2856" width="9.16669" height="9.16669" fill="black"/>
    <rect x="419.052" y="96.2856" width="9.16669" height="9.16669" fill="#375BB6"/>
    <rect x="419.052" y="100.869" width="9.16669" height="9.16669" fill="#F3D74B"/>
    <rect x="414.469" y="100.869" width="9.16669" height="9.16669" fill="#B3271A"/>
    <rect x="414.469" y="110.036" width="9.16669" height="9.16669" fill="black"/>
    <rect x="419.052" y="110.036" width="9.16669" height="9.16669" fill="#375BB6"/>
    <rect x="419.052" y="114.619" width="9.16669" height="9.16669" fill="#F3D74B"/>
    <rect x="414.469" y="114.619" width="9.16669" height="9.16669" fill="#B3271A"/>
    <rect x="414.469" y="110.036" width="9.16669" height="9.16669" fill="black"/>
    <rect x="419.052" y="110.036" width="9.16669" height="9.16669" fill="#375BB6"/>
    <rect x="419.052" y="114.619" width="9.16669" height="9.16669" fill="#F3D74B"/>
    <rect x="414.469" y="114.619" width="9.16669" height="9.16669" fill="#B3271A"/>
    <rect x="414.469" y="123.786" width="9.16669" height="9.16669" fill="black"/>
    <rect x="419.052" y="123.786" width="9.16669" height="9.16669" fill="#375BB6"/>
    <rect x="419.052" y="128.369" width="9.16669" height="9.16669" fill="#F3D74B"/>
    <rect x="414.469" y="128.369" width="9.16669" height="9.16669" fill="#B3271A"/>
    <rect x="428.218" y="96.2856" width="9.16669" height="9.16669" fill="black"/>
    <rect x="432.8" y="96.2856" width="9.16669" height="9.16669" fill="#375BB6"/>
    <rect x="432.8" y="100.869" width="9.16669" height="9.16669" fill="#F3D74B"/>
    <rect x="428.218" y="100.869" width="9.16669" height="9.16669" fill="#B3271A"/>
    <rect x="428.218" y="110.036" width="9.16669" height="9.16669" fill="black"/>
    <rect x="432.8" y="110.036" width="9.16669" height="9.16669" fill="#375BB6"/>
    <rect x="432.8" y="114.619" width="9.16669" height="9.16669" fill="#F3D74B"/>
    <rect x="428.218" y="114.619" width="9.16669" height="9.16669" fill="#B3271A"/>
    <rect x="428.218" y="110.036" width="9.16669" height="9.16669" fill="black"/>
    <rect x="432.8" y="110.036" width="9.16669" height="9.16669" fill="#375BB6"/>
    <rect x="432.8" y="114.619" width="9.16669" height="9.16669" fill="#F3D74B"/>
    <rect x="428.218" y="114.619" width="9.16669" height="9.16669" fill="#B3271A"/>
    <rect x="428.218" y="123.786" width="9.16669" height="9.16669" fill="black"/>
    <rect x="432.8" y="123.786" width="9.16669" height="9.16669" fill="#375BB6"/>
    <rect x="432.8" y="128.369" width="9.16669" height="9.16669" fill="#F3D74B"/>
    <rect x="428.218" y="128.369" width="9.16669" height="9.16669" fill="#B3271A"/>
    <rect x="441.968" y="96.2859" width="9.16669" height="9.16669" fill="black"/>
    <rect x="446.551" y="96.2859" width="9.16669" height="9.16669" fill="#375BB6"/>
    <rect x="446.551" y="100.869" width="9.16669" height="9.16669" fill="#F3D74B"/>
    <rect x="441.968" y="100.869" width="9.16669" height="9.16669" fill="#B3271A"/>
    <rect x="441.968" y="110.036" width="9.16669" height="9.16669" fill="black"/>
    <rect x="446.551" y="110.036" width="9.16669" height="9.16669" fill="#375BB6"/>
    <rect x="446.551" y="114.619" width="9.16669" height="9.16669" fill="#F3D74B"/>
    <rect x="441.968" y="114.619" width="9.16669" height="9.16669" fill="#B3271A"/>
    <rect x="441.968" y="110.036" width="9.16669" height="9.16669" fill="black"/>
    <rect x="446.551" y="110.036" width="9.16669" height="9.16669" fill="#375BB6"/>
    <rect x="446.551" y="114.619" width="9.16669" height="9.16669" fill="#F3D74B"/>
    <rect x="441.968" y="114.619" width="9.16669" height="9.16669" fill="#B3271A"/>
    <rect x="441.968" y="123.786" width="9.16669" height="9.16669" fill="black"/>
    <rect x="446.551" y="123.786" width="9.16669" height="9.16669" fill="#375BB6"/>
    <rect x="446.551" y="128.369" width="9.16669" height="9.16669" fill="#F3D74B"/>
    <rect x="441.968" y="128.369" width="9.16669" height="9.16669" fill="#B3271A"/>
    <rect x="345.719" y="137.536" width="9.16669" height="9.16669" fill="black"/>
    <rect x="350.302" y="137.536" width="9.16669" height="9.16669" fill="#375BB6"/>
    <rect x="350.302" y="142.119" width="9.16669" height="9.16669" fill="#F3D74B"/>
    <rect x="345.719" y="142.119" width="9.16669" height="9.16669" fill="#B3271A"/>
    <rect x="345.719" y="151.286" width="9.16669" height="9.16669" fill="black"/>
    <rect x="350.302" y="151.286" width="9.16669" height="9.16669" fill="#375BB6"/>
    <rect x="350.302" y="155.869" width="9.16669" height="9.16669" fill="#F3D74B"/>
    <rect x="345.719" y="155.869" width="9.16669" height="9.16669" fill="#B3271A"/>
    <rect x="345.719" y="151.286" width="9.16669" height="9.16669" fill="black"/>
    <rect x="350.302" y="151.286" width="9.16669" height="9.16669" fill="#375BB6"/>
    <rect x="350.302" y="155.869" width="9.16669" height="9.16669" fill="#F3D74B"/>
    <rect x="345.719" y="155.869" width="9.16669" height="9.16669" fill="#B3271A"/>
    <rect x="345.719" y="165.036" width="9.16669" height="9.16669" fill="black"/>
    <rect x="350.302" y="165.036" width="9.16669" height="9.16669" fill="#375BB6"/>
    <rect x="350.302" y="169.619" width="9.16669" height="9.16669" fill="#F3D74B"/>
    <rect x="345.719" y="169.619" width="9.16669" height="9.16669" fill="#B3271A"/>
    <rect x="359.468" y="137.536" width="9.16669" height="9.16669" fill="black"/>
    <rect x="364.05" y="137.536" width="9.16669" height="9.16669" fill="#375BB6"/>
    <rect x="364.05" y="142.119" width="9.16669" height="9.16669" fill="#F3D74B"/>
    <rect x="359.468" y="142.119" width="9.16669" height="9.16669" fill="#B3271A"/>
    <rect x="359.468" y="151.286" width="9.16669" height="9.16669" fill="black"/>
    <rect x="364.05" y="151.286" width="9.16669" height="9.16669" fill="#375BB6"/>
    <rect x="364.05" y="155.869" width="9.16669" height="9.16669" fill="#F3D74B"/>
    <rect x="359.468" y="155.869" width="9.16669" height="9.16669" fill="#B3271A"/>
    <rect x="359.468" y="151.286" width="9.16669" height="9.16669" fill="black"/>
    <rect x="364.05" y="151.286" width="9.16669" height="9.16669" fill="#375BB6"/>
    <rect x="364.05" y="155.869" width="9.16669" height="9.16669" fill="#F3D74B"/>
    <rect x="359.468" y="155.869" width="9.16669" height="9.16669" fill="#B3271A"/>
    <rect x="359.468" y="165.036" width="9.16669" height="9.16669" fill="black"/>
    <rect x="364.05" y="165.036" width="9.16669" height="9.16669" fill="#375BB6"/>
    <rect x="364.05" y="169.619" width="9.16669" height="9.16669" fill="#F3D74B"/>
    <rect x="359.468" y="169.619" width="9.16669" height="9.16669" fill="#B3271A"/>
    <rect x="373.218" y="137.536" width="9.16669" height="9.16669" fill="black"/>
    <rect x="377.801" y="137.536" width="9.16669" height="9.16669" fill="#375BB6"/>
    <rect x="377.801" y="142.119" width="9.16669" height="9.16669" fill="#F3D74B"/>
    <rect x="373.218" y="142.119" width="9.16669" height="9.16669" fill="#B3271A"/>
    <rect x="373.218" y="151.286" width="9.16669" height="9.16669" fill="black"/>
    <rect x="377.801" y="151.286" width="9.16669" height="9.16669" fill="#375BB6"/>
    <rect x="377.801" y="155.869" width="9.16669" height="9.16669" fill="#F3D74B"/>
    <rect x="373.218" y="155.869" width="9.16669" height="9.16669" fill="#B3271A"/>
    <rect x="373.218" y="151.286" width="9.16669" height="9.16669" fill="black"/>
    <rect x="377.801" y="151.286" width="9.16669" height="9.16669" fill="#375BB6"/>
    <rect x="377.801" y="155.869" width="9.16669" height="9.16669" fill="#F3D74B"/>
    <rect x="373.218" y="155.869" width="9.16669" height="9.16669" fill="#B3271A"/>
    <rect x="373.218" y="165.036" width="9.16669" height="9.16669" fill="black"/>
    <rect x="377.801" y="165.036" width="9.16669" height="9.16669" fill="#375BB6"/>
    <rect x="377.801" y="169.62" width="9.16669" height="9.16669" fill="#F3D74B"/>
    <rect x="373.218" y="169.62" width="9.16669" height="9.16669" fill="#B3271A"/>
    <rect x="386.969" y="137.536" width="9.16669" height="9.16669" fill="black"/>
    <rect x="391.552" y="137.536" width="9.16669" height="9.16669" fill="#375BB6"/>
    <rect x="391.552" y="142.119" width="9.16669" height="9.16669" fill="#F3D74B"/>
    <rect x="386.969" y="142.119" width="9.16669" height="9.16669" fill="#B3271A"/>
    <rect x="386.969" y="151.286" width="9.16669" height="9.16669" fill="black"/>
    <rect x="391.552" y="151.286" width="9.16669" height="9.16669" fill="#375BB6"/>
    <rect x="391.552" y="155.869" width="9.16669" height="9.16669" fill="#F3D74B"/>
    <rect x="386.969" y="155.869" width="9.16669" height="9.16669" fill="#B3271A"/>
    <rect x="386.969" y="151.286" width="9.16669" height="9.16669" fill="black"/>
    <rect x="391.552" y="151.286" width="9.16669" height="9.16669" fill="#375BB6"/>
    <rect x="391.552" y="155.869" width="9.16669" height="9.16669" fill="#F3D74B"/>
    <rect x="386.969" y="155.869" width="9.16669" height="9.16669" fill="#B3271A"/>
    <rect x="386.969" y="165.036" width="9.16669" height="9.16669" fill="black"/>
    <rect x="391.552" y="165.036" width="9.16669" height="9.16669" fill="#375BB6"/>
    <rect x="391.552" y="169.62" width="9.16669" height="9.16669" fill="#F3D74B"/>
    <rect x="386.969" y="169.62" width="9.16669" height="9.16669" fill="#B3271A"/>
    <rect x="400.719" y="137.536" width="9.16669" height="9.16669" fill="black"/>
    <rect x="405.302" y="137.536" width="9.16669" height="9.16669" fill="#375BB6"/>
    <rect x="405.302" y="142.119" width="9.16669" height="9.16669" fill="#F3D74B"/>
    <rect x="400.719" y="142.119" width="9.16669" height="9.16669" fill="#B3271A"/>
    <rect x="400.719" y="151.286" width="9.16669" height="9.16669" fill="black"/>
    <rect x="405.302" y="151.286" width="9.16669" height="9.16669" fill="#375BB6"/>
    <rect x="405.302" y="155.869" width="9.16669" height="9.16669" fill="#F3D74B"/>
    <rect x="400.719" y="155.869" width="9.16669" height="9.16669" fill="#B3271A"/>
    <rect x="400.719" y="151.286" width="9.16669" height="9.16669" fill="black"/>
    <rect x="405.302" y="151.286" width="9.16669" height="9.16669" fill="#375BB6"/>
    <rect x="405.302" y="155.869" width="9.16669" height="9.16669" fill="#F3D74B"/>
    <rect x="400.719" y="155.869" width="9.16669" height="9.16669" fill="#B3271A"/>
    <rect x="400.719" y="165.036" width="9.16669" height="9.16669" fill="black"/>
    <rect x="405.302" y="165.036" width="9.16669" height="9.16669" fill="#375BB6"/>
    <rect x="405.302" y="169.619" width="9.16669" height="9.16669" fill="#F3D74B"/>
    <rect x="400.719" y="169.619" width="9.16669" height="9.16669" fill="#B3271A"/>
    <rect x="414.469" y="137.536" width="9.16669" height="9.16669" fill="black"/>
    <rect x="419.052" y="137.536" width="9.16669" height="9.16669" fill="#375BB6"/>
    <rect x="419.052" y="142.119" width="9.16669" height="9.16669" fill="#F3D74B"/>
    <rect x="414.469" y="142.119" width="9.16669" height="9.16669" fill="#B3271A"/>
    <rect x="414.469" y="151.286" width="9.16669" height="9.16669" fill="black"/>
    <rect x="419.052" y="151.286" width="9.16669" height="9.16669" fill="#375BB6"/>
    <rect x="419.052" y="155.869" width="9.16669" height="9.16669" fill="#F3D74B"/>
    <rect x="414.469" y="155.869" width="9.16669" height="9.16669" fill="#B3271A"/>
    <rect x="414.469" y="151.286" width="9.16669" height="9.16669" fill="black"/>
    <rect x="419.052" y="151.286" width="9.16669" height="9.16669" fill="#375BB6"/>
    <rect x="419.052" y="155.869" width="9.16669" height="9.16669" fill="#F3D74B"/>
    <rect x="414.469" y="155.869" width="9.16669" height="9.16669" fill="#B3271A"/>
    <rect x="414.469" y="165.036" width="9.16669" height="9.16669" fill="black"/>
    <rect x="419.052" y="165.036" width="9.16669" height="9.16669" fill="#375BB6"/>
    <rect x="419.052" y="169.619" width="9.16669" height="9.16669" fill="#F3D74B"/>
    <rect x="414.469" y="169.619" width="9.16669" height="9.16669" fill="#B3271A"/>
    <rect x="428.218" y="137.536" width="9.16669" height="9.16669" fill="black"/>
    <rect x="432.8" y="137.536" width="9.16669" height="9.16669" fill="#375BB6"/>
    <rect x="432.8" y="142.119" width="9.16669" height="9.16669" fill="#F3D74B"/>
    <rect x="428.218" y="142.119" width="9.16669" height="9.16669" fill="#B3271A"/>
    <rect x="428.218" y="151.286" width="9.16669" height="9.16669" fill="black"/>
    <rect x="432.8" y="151.286" width="9.16669" height="9.16669" fill="#375BB6"/>
    <rect x="432.8" y="155.869" width="9.16669" height="9.16669" fill="#F3D74B"/>
    <rect x="428.218" y="155.869" width="9.16669" height="9.16669" fill="#B3271A"/>
    <rect x="428.218" y="151.286" width="9.16669" height="9.16669" fill="black"/>
    <rect x="432.8" y="151.286" width="9.16669" height="9.16669" fill="#375BB6"/>
    <rect x="432.8" y="155.869" width="9.16669" height="9.16669" fill="#F3D74B"/>
    <rect x="428.218" y="155.869" width="9.16669" height="9.16669" fill="#B3271A"/>
    <rect x="428.218" y="165.036" width="9.16669" height="9.16669" fill="black"/>
    <rect x="432.8" y="165.036" width="9.16669" height="9.16669" fill="#375BB6"/>
    <rect x="432.8" y="169.619" width="9.16669" height="9.16669" fill="#F3D74B"/>
    <rect x="428.218" y="169.619" width="9.16669" height="9.16669" fill="#B3271A"/>
    <rect x="441.968" y="137.536" width="9.16669" height="9.16669" fill="black"/>
    <rect x="446.551" y="137.536" width="9.16669" height="9.16669" fill="#375BB6"/>
    <rect x="446.551" y="142.119" width="9.16669" height="9.16669" fill="#F3D74B"/>
    <rect x="441.968" y="142.119" width="9.16669" height="9.16669" fill="#B3271A"/>
    <rect x="441.968" y="151.286" width="9.16669" height="9.16669" fill="black"/>
    <rect x="446.551" y="151.286" width="9.16669" height="9.16669" fill="#375BB6"/>
    <rect x="446.551" y="155.869" width="9.16669" height="9.16669" fill="#F3D74B"/>
    <rect x="441.968" y="155.869" width="9.16669" height="9.16669" fill="#B3271A"/>
    <rect x="441.968" y="151.286" width="9.16669" height="9.16669" fill="black"/>
    <rect x="446.551" y="151.286" width="9.16669" height="9.16669" fill="#375BB6"/>
    <rect x="446.551" y="155.869" width="9.16669" height="9.16669" fill="#F3D74B"/>
    <rect x="441.968" y="155.869" width="9.16669" height="9.16669" fill="#B3271A"/>
    <rect x="441.968" y="165.036" width="9.16669" height="9.16669" fill="black"/>
    <rect x="446.551" y="165.036" width="9.16669" height="9.16669" fill="#375BB6"/>
    <rect x="446.551" y="169.619" width="9.16669" height="9.16669" fill="#F3D74B"/>
    <rect x="441.968" y="169.619" width="9.16669" height="9.16669" fill="#B3271A"/>
    <rect x="345.719" y="165.036" width="9.16669" height="9.16669" fill="black"/>
    <rect x="350.302" y="165.036" width="9.16669" height="9.16669" fill="#375BB6"/>
    <rect x="350.302" y="169.619" width="9.16669" height="9.16669" fill="#F3D74B"/>
    <rect x="345.719" y="169.619" width="9.16669" height="9.16669" fill="#B3271A"/>
    <rect x="345.719" y="178.786" width="9.16669" height="9.16669" fill="black"/>
    <rect x="350.302" y="178.786" width="9.16669" height="9.16669" fill="#375BB6"/>
    <rect x="350.302" y="183.37" width="9.16669" height="9.16669" fill="#F3D74B"/>
    <rect x="345.719" y="183.37" width="9.16669" height="9.16669" fill="#B3271A"/>
    <rect x="345.719" y="178.786" width="9.16669" height="9.16669" fill="black"/>
    <rect x="350.302" y="178.786" width="9.16669" height="9.16669" fill="#375BB6"/>
    <rect x="350.302" y="183.37" width="9.16669" height="9.16669" fill="#F3D74B"/>
    <rect x="345.719" y="183.37" width="9.16669" height="9.16669" fill="#B3271A"/>
    <rect x="345.719" y="192.536" width="9.16669" height="9.16669" fill="black"/>
    <rect x="350.302" y="192.536" width="9.16669" height="9.16669" fill="#375BB6"/>
    <rect x="350.302" y="197.12" width="9.16669" height="9.16669" fill="#F3D74B"/>
    <rect x="345.719" y="197.12" width="9.16669" height="9.16669" fill="#B3271A"/>
    <rect x="359.468" y="165.036" width="9.16669" height="9.16669" fill="black"/>
    <rect x="364.05" y="165.036" width="9.16669" height="9.16669" fill="#375BB6"/>
    <rect x="364.05" y="169.619" width="9.16669" height="9.16669" fill="#F3D74B"/>
    <rect x="359.468" y="169.619" width="9.16669" height="9.16669" fill="#B3271A"/>
    <rect x="359.468" y="178.786" width="9.16669" height="9.16669" fill="black"/>
    <rect x="364.05" y="178.786" width="9.16669" height="9.16669" fill="#375BB6"/>
    <rect x="364.05" y="183.37" width="9.16669" height="9.16669" fill="#F3D74B"/>
    <rect x="359.468" y="183.37" width="9.16669" height="9.16669" fill="#B3271A"/>
    <rect x="359.468" y="178.786" width="9.16669" height="9.16669" fill="black"/>
    <rect x="364.05" y="178.786" width="9.16669" height="9.16669" fill="#375BB6"/>
    <rect x="364.05" y="183.37" width="9.16669" height="9.16669" fill="#F3D74B"/>
    <rect x="359.468" y="183.37" width="9.16669" height="9.16669" fill="#B3271A"/>
    <rect x="359.468" y="192.536" width="9.16669" height="9.16669" fill="black"/>
    <rect x="364.05" y="192.536" width="9.16669" height="9.16669" fill="#375BB6"/>
    <rect x="364.05" y="197.12" width="9.16669" height="9.16669" fill="#F3D74B"/>
    <rect x="359.468" y="197.12" width="9.16669" height="9.16669" fill="#B3271A"/>
    <rect x="373.218" y="165.036" width="9.16669" height="9.16669" fill="black"/>
    <rect x="377.801" y="165.036" width="9.16669" height="9.16669" fill="#375BB6"/>
    <rect x="377.801" y="169.62" width="9.16669" height="9.16669" fill="#F3D74B"/>
    <rect x="373.218" y="169.62" width="9.16669" height="9.16669" fill="#B3271A"/>
    <rect x="373.218" y="178.786" width="9.16669" height="9.16669" fill="black"/>
    <rect x="377.801" y="178.786" width="9.16669" height="9.16669" fill="#375BB6"/>
    <rect x="377.801" y="183.37" width="9.16669" height="9.16669" fill="#F3D74B"/>
    <rect x="373.218" y="183.37" width="9.16669" height="9.16669" fill="#B3271A"/>
    <rect x="373.218" y="178.786" width="9.16669" height="9.16669" fill="black"/>
    <rect x="377.801" y="178.786" width="9.16669" height="9.16669" fill="#375BB6"/>
    <rect x="377.801" y="183.37" width="9.16669" height="9.16669" fill="#F3D74B"/>
    <rect x="373.218" y="183.37" width="9.16669" height="9.16669" fill="#B3271A"/>
    <rect x="373.218" y="192.536" width="9.16669" height="9.16669" fill="black"/>
    <rect x="377.801" y="192.536" width="9.16669" height="9.16669" fill="#375BB6"/>
    <rect x="377.801" y="197.12" width="9.16669" height="9.16669" fill="#F3D74B"/>
    <rect x="373.218" y="197.12" width="9.16669" height="9.16669" fill="#B3271A"/>
    <rect x="386.969" y="165.036" width="9.16669" height="9.16669" fill="black"/>
    <rect x="391.552" y="165.036" width="9.16669" height="9.16669" fill="#375BB6"/>
    <rect x="391.552" y="169.62" width="9.16669" height="9.16669" fill="#F3D74B"/>
    <rect x="386.969" y="169.62" width="9.16669" height="9.16669" fill="#B3271A"/>
    <rect x="386.969" y="178.786" width="9.16669" height="9.16669" fill="black"/>
    <rect x="391.552" y="178.786" width="9.16669" height="9.16669" fill="#375BB6"/>
    <rect x="391.552" y="183.37" width="9.16669" height="9.16669" fill="#F3D74B"/>
    <rect x="386.969" y="183.37" width="9.16669" height="9.16669" fill="#B3271A"/>
    <rect x="386.969" y="178.786" width="9.16669" height="9.16669" fill="black"/>
    <rect x="391.552" y="178.786" width="9.16669" height="9.16669" fill="#375BB6"/>
    <rect x="391.552" y="183.37" width="9.16669" height="9.16669" fill="#F3D74B"/>
    <rect x="386.969" y="183.37" width="9.16669" height="9.16669" fill="#B3271A"/>
    <rect x="386.969" y="192.536" width="9.16669" height="9.16669" fill="black"/>
    <rect x="391.552" y="192.536" width="9.16669" height="9.16669" fill="#375BB6"/>
    <rect x="391.552" y="197.12" width="9.16669" height="9.16669" fill="#F3D74B"/>
    <rect x="386.969" y="197.12" width="9.16669" height="9.16669" fill="#B3271A"/>
    <rect x="400.719" y="165.036" width="9.16669" height="9.16669" fill="black"/>
    <rect x="405.302" y="165.036" width="9.16669" height="9.16669" fill="#375BB6"/>
    <rect x="405.302" y="169.619" width="9.16669" height="9.16669" fill="#F3D74B"/>
    <rect x="400.719" y="169.619" width="9.16669" height="9.16669" fill="#B3271A"/>
    <rect x="400.719" y="178.786" width="9.16669" height="9.16669" fill="black"/>
    <rect x="405.302" y="178.786" width="9.16669" height="9.16669" fill="#375BB6"/>
    <rect x="405.302" y="183.37" width="9.16669" height="9.16669" fill="#F3D74B"/>
    <rect x="400.719" y="183.37" width="9.16669" height="9.16669" fill="#B3271A"/>
    <rect x="400.719" y="178.786" width="9.16669" height="9.16669" fill="black"/>
    <rect x="405.302" y="178.786" width="9.16669" height="9.16669" fill="#375BB6"/>
    <rect x="405.302" y="183.37" width="9.16669" height="9.16669" fill="#F3D74B"/>
    <rect x="400.719" y="183.37" width="9.16669" height="9.16669" fill="#B3271A"/>
    <rect x="400.719" y="192.536" width="9.16669" height="9.16669" fill="black"/>
    <rect x="405.302" y="192.536" width="9.16669" height="9.16669" fill="#375BB6"/>
    <rect x="405.302" y="197.12" width="9.16669" height="9.16669" fill="#F3D74B"/>
    <rect x="400.719" y="197.12" width="9.16669" height="9.16669" fill="#B3271A"/>
    <rect x="414.469" y="165.036" width="9.16669" height="9.16669" fill="black"/>
    <rect x="419.052" y="165.036" width="9.16669" height="9.16669" fill="#375BB6"/>
    <rect x="419.052" y="169.619" width="9.16669" height="9.16669" fill="#F3D74B"/>
    <rect x="414.469" y="169.619" width="9.16669" height="9.16669" fill="#B3271A"/>
    <rect x="414.469" y="178.786" width="9.16669" height="9.16669" fill="black"/>
    <rect x="419.052" y="178.786" width="9.16669" height="9.16669" fill="#375BB6"/>
    <rect x="419.052" y="183.37" width="9.16669" height="9.16669" fill="#F3D74B"/>
    <rect x="414.469" y="183.37" width="9.16669" height="9.16669" fill="#B3271A"/>
    <rect x="414.469" y="178.786" width="9.16669" height="9.16669" fill="black"/>
    <rect x="419.052" y="178.786" width="9.16669" height="9.16669" fill="#375BB6"/>
    <rect x="419.052" y="183.37" width="9.16669" height="9.16669" fill="#F3D74B"/>
    <rect x="414.469" y="183.37" width="9.16669" height="9.16669" fill="#B3271A"/>
    <rect x="414.469" y="192.536" width="9.16669" height="9.16669" fill="black"/>
    <rect x="419.052" y="192.536" width="9.16669" height="9.16669" fill="#375BB6"/>
    <rect x="419.052" y="197.12" width="9.16669" height="9.16669" fill="#F3D74B"/>
    <rect x="414.469" y="197.12" width="9.16669" height="9.16669" fill="#B3271A"/>
    <rect x="428.218" y="165.036" width="9.16669" height="9.16669" fill="black"/>
    <rect x="432.8" y="165.036" width="9.16669" height="9.16669" fill="#375BB6"/>
    <rect x="432.8" y="169.619" width="9.16669" height="9.16669" fill="#F3D74B"/>
    <rect x="428.218" y="169.619" width="9.16669" height="9.16669" fill="#B3271A"/>
    <rect x="428.218" y="178.786" width="9.16669" height="9.16669" fill="black"/>
    <rect x="432.8" y="178.786" width="9.16669" height="9.16669" fill="#375BB6"/>
    <rect x="432.8" y="183.37" width="9.16669" height="9.16669" fill="#F3D74B"/>
    <rect x="428.218" y="183.37" width="9.16669" height="9.16669" fill="#B3271A"/>
    <rect x="428.218" y="178.786" width="9.16669" height="9.16669" fill="black"/>
    <rect x="432.8" y="178.786" width="9.16669" height="9.16669" fill="#375BB6"/>
    <rect x="432.8" y="183.37" width="9.16669" height="9.16669" fill="#F3D74B"/>
    <rect x="428.218" y="183.37" width="9.16669" height="9.16669" fill="#B3271A"/>
    <rect x="428.218" y="192.536" width="9.16669" height="9.16669" fill="black"/>
    <rect x="432.8" y="192.536" width="9.16669" height="9.16669" fill="#375BB6"/>
    <rect x="432.8" y="197.12" width="9.16669" height="9.16669" fill="#F3D74B"/>
    <rect x="428.218" y="197.12" width="9.16669" height="9.16669" fill="#B3271A"/>
    <rect x="441.968" y="165.036" width="9.16669" height="9.16669" fill="black"/>
    <rect x="446.551" y="165.036" width="9.16669" height="9.16669" fill="#375BB6"/>
    <rect x="446.551" y="169.619" width="9.16669" height="9.16669" fill="#F3D74B"/>
    <rect x="441.968" y="169.619" width="9.16669" height="9.16669" fill="#B3271A"/>
    <rect x="441.968" y="178.786" width="9.16669" height="9.16669" fill="black"/>
    <rect x="446.551" y="178.786" width="9.16669" height="9.16669" fill="#375BB6"/>
    <rect x="446.551" y="183.37" width="9.16669" height="9.16669" fill="#F3D74B"/>
    <rect x="441.968" y="183.37" width="9.16669" height="9.16669" fill="#B3271A"/>
    <rect x="441.968" y="178.786" width="9.16669" height="9.16669" fill="black"/>
    <rect x="446.551" y="178.786" width="9.16669" height="9.16669" fill="#375BB6"/>
    <rect x="446.551" y="183.37" width="9.16669" height="9.16669" fill="#F3D74B"/>
    <rect x="441.968" y="183.37" width="9.16669" height="9.16669" fill="#B3271A"/>
    <rect x="441.968" y="192.536" width="9.16669" height="9.16669" fill="black"/>
    <rect x="446.551" y="192.536" width="9.16669" height="9.16669" fill="#375BB6"/>
    <rect x="446.551" y="197.119" width="9.16669" height="9.16669" fill="#F3D74B"/>
    <rect x="441.968" y="197.119" width="9.16669" height="9.16669" fill="#B3271A"/>
    <circle cx="42.5" cy="42.5" r="42.5" fill="#B3271A"/>
    <circle cx="33" cy="33" r="25" fill="black"/>
    <path d="M73 58C73 66.2843 66.2843 73 58 73C49.7157 73 43 66.2843 43 58C43 49.7157 49.7157 43 58 43C66.2843 43 73 49.7157 73 58Z"
          fill="#F3D74B"/>
    <path d="M58 48C58 53.5228 53.5228 58 48 58C42.4772 58 38 53.5228 38 48C38 42.4772 42.4772 38 48 38C53.5228 38 58 42.4772 58 48Z"
          fill="#375BB6"/>
    <circle cx="757.5" cy="263.5" r="42.5" transform="rotate(-180 757.5 263.5)" fill="#B3271A"/>
    <circle cx="767" cy="273" r="25" transform="rotate(-180 767 273)" fill="black"/>
    <path d="M727 248C727 239.716 733.716 233 742 233C750.284 233 757 239.716 757 248C757 256.284 750.284 263 742 263C733.716 263 727 256.284 727 248Z"
          fill="#F3D74B"/>
    <path d="M742 258C742 252.477 746.477 248 752 248C757.523 248 762 252.477 762 258C762 263.523 757.523 268 752 268C746.477 268 742 263.523 742 258Z"
          fill="#375BB6"/>
</svg>
