<svg viewBox="0 0 200 200" fill="none" xmlns="http://www.w3.org/2000/svg">
    <circle cx="100" cy="100" r="100" fill="black"/>
    <rect x="45.7148" y="44.2861" width="9.16669" height="9.16669" fill="black"/>
    <rect x="50.2979" y="44.2857" width="9.16669" height="9.16669" fill="#375BB6"/>
    <rect x="50.2979" y="48.8691" width="9.16669" height="9.16669" fill="#F3D74B"/>
    <rect x="45.7148" y="48.8691" width="9.16669" height="9.16669" fill="#B3271A"/>
    <rect x="45.7148" y="58.0359" width="9.16669" height="9.16669" fill="black"/>
    <rect x="50.2979" y="58.0359" width="9.16669" height="9.16669" fill="#375BB6"/>
    <rect x="50.2979" y="62.6194" width="9.16669" height="9.16669" fill="#F3D74B"/>
    <rect x="45.7148" y="62.6194" width="9.16669" height="9.16669" fill="#B3271A"/>
    <rect x="45.7148" y="58.0359" width="9.16669" height="9.16669" fill="black"/>
    <rect x="50.2979" y="58.0359" width="9.16669" height="9.16669" fill="#375BB6"/>
    <rect x="50.2979" y="62.6194" width="9.16669" height="9.16669" fill="#F3D74B"/>
    <rect x="45.7148" y="62.6194" width="9.16669" height="9.16669" fill="#B3271A"/>
    <rect x="45.7148" y="71.786" width="9.16669" height="9.16669" fill="black"/>
    <rect x="50.2979" y="71.786" width="9.16669" height="9.16669" fill="#375BB6"/>
    <rect x="50.2979" y="76.3693" width="9.16669" height="9.16669" fill="#F3D74B"/>
    <rect x="45.7148" y="76.3693" width="9.16669" height="9.16669" fill="#B3271A"/>
    <rect x="59.4639" y="44.2857" width="9.16669" height="9.16669" fill="black"/>
    <rect x="64.0459" y="44.2857" width="9.16669" height="9.16669" fill="#375BB6"/>
    <rect x="64.0459" y="48.8691" width="9.16669" height="9.16669" fill="#F3D74B"/>
    <rect x="59.4639" y="48.8691" width="9.16669" height="9.16669" fill="#B3271A"/>
    <rect x="59.4639" y="58.0359" width="9.16669" height="9.16669" fill="black"/>
    <rect x="64.0459" y="58.0359" width="9.16669" height="9.16669" fill="#375BB6"/>
    <rect x="64.0459" y="62.6194" width="9.16669" height="9.16669" fill="#F3D74B"/>
    <rect x="59.4639" y="62.6194" width="9.16669" height="9.16669" fill="#B3271A"/>
    <rect x="59.4639" y="58.0359" width="9.16669" height="9.16669" fill="black"/>
    <rect x="64.0459" y="58.0359" width="9.16669" height="9.16669" fill="#375BB6"/>
    <rect x="64.0459" y="62.6194" width="9.16669" height="9.16669" fill="#F3D74B"/>
    <rect x="59.4639" y="62.6194" width="9.16669" height="9.16669" fill="#B3271A"/>
    <rect x="59.4639" y="71.786" width="9.16669" height="9.16669" fill="black"/>
    <rect x="64.0459" y="71.786" width="9.16669" height="9.16669" fill="#375BB6"/>
    <rect x="64.0459" y="76.3693" width="9.16669" height="9.16669" fill="#F3D74B"/>
    <rect x="59.4639" y="76.3693" width="9.16669" height="9.16669" fill="#B3271A"/>
    <rect x="73.2139" y="44.2857" width="9.16669" height="9.16669" fill="black"/>
    <rect x="77.7969" y="44.2857" width="9.16669" height="9.16669" fill="#375BB6"/>
    <rect x="77.7969" y="48.8692" width="9.16669" height="9.16669" fill="#F3D74B"/>
    <rect x="73.2139" y="48.8692" width="9.16669" height="9.16669" fill="#B3271A"/>
    <rect x="73.2139" y="58.0358" width="9.16669" height="9.16669" fill="black"/>
    <rect x="77.7969" y="58.0358" width="9.16669" height="9.16669" fill="#375BB6"/>
    <rect x="77.7969" y="62.6193" width="9.16669" height="9.16669" fill="#F3D74B"/>
    <rect x="73.2139" y="62.6193" width="9.16669" height="9.16669" fill="#B3271A"/>
    <rect x="73.2139" y="58.0358" width="9.16669" height="9.16669" fill="black"/>
    <rect x="77.7969" y="58.0358" width="9.16669" height="9.16669" fill="#375BB6"/>
    <rect x="77.7969" y="62.6193" width="9.16669" height="9.16669" fill="#F3D74B"/>
    <rect x="73.2139" y="62.6193" width="9.16669" height="9.16669" fill="#B3271A"/>
    <rect x="73.2139" y="71.7861" width="9.16669" height="9.16669" fill="black"/>
    <rect x="77.7969" y="71.7861" width="9.16669" height="9.16669" fill="#375BB6"/>
    <rect x="77.7969" y="76.3694" width="9.16669" height="9.16669" fill="#F3D74B"/>
    <rect x="73.2139" y="76.3694" width="9.16669" height="9.16669" fill="#B3271A"/>
    <rect x="86.9648" y="44.2857" width="9.16669" height="9.16669" fill="black"/>
    <rect x="91.5479" y="44.2857" width="9.16669" height="9.16669" fill="#375BB6"/>
    <rect x="91.5479" y="48.8692" width="9.16669" height="9.16669" fill="#F3D74B"/>
    <rect x="86.9648" y="48.8692" width="9.16669" height="9.16669" fill="#B3271A"/>
    <rect x="86.9648" y="58.0358" width="9.16669" height="9.16669" fill="black"/>
    <rect x="91.5479" y="58.0358" width="9.16669" height="9.16669" fill="#375BB6"/>
    <rect x="91.5479" y="62.6193" width="9.16669" height="9.16669" fill="#F3D74B"/>
    <rect x="86.9648" y="62.6193" width="9.16669" height="9.16669" fill="#B3271A"/>
    <rect x="86.9648" y="58.0358" width="9.16669" height="9.16669" fill="black"/>
    <rect x="91.5479" y="58.0358" width="9.16669" height="9.16669" fill="#375BB6"/>
    <rect x="91.5479" y="62.6193" width="9.16669" height="9.16669" fill="#F3D74B"/>
    <rect x="86.9648" y="62.6193" width="9.16669" height="9.16669" fill="#B3271A"/>
    <rect x="86.9648" y="71.7861" width="9.16669" height="9.16669" fill="black"/>
    <rect x="91.5479" y="71.7861" width="9.16669" height="9.16669" fill="#375BB6"/>
    <rect x="91.5479" y="76.3694" width="9.16669" height="9.16669" fill="#F3D74B"/>
    <rect x="86.9648" y="76.3694" width="9.16669" height="9.16669" fill="#B3271A"/>
    <rect x="100.715" y="44.2857" width="9.16669" height="9.16669" fill="black"/>
    <rect x="105.298" y="44.2857" width="9.16669" height="9.16669" fill="#375BB6"/>
    <rect x="105.298" y="48.8691" width="9.16669" height="9.16669" fill="#F3D74B"/>
    <rect x="100.715" y="48.8691" width="9.16669" height="9.16669" fill="#B3271A"/>
    <rect x="100.715" y="58.0359" width="9.16669" height="9.16669" fill="black"/>
    <rect x="105.298" y="58.0359" width="9.16669" height="9.16669" fill="#375BB6"/>
    <rect x="105.298" y="62.6194" width="9.16669" height="9.16669" fill="#F3D74B"/>
    <rect x="100.715" y="62.6194" width="9.16669" height="9.16669" fill="#B3271A"/>
    <rect x="100.715" y="58.0359" width="9.16669" height="9.16669" fill="black"/>
    <rect x="105.298" y="58.0359" width="9.16669" height="9.16669" fill="#375BB6"/>
    <rect x="105.298" y="62.6194" width="9.16669" height="9.16669" fill="#F3D74B"/>
    <rect x="100.715" y="62.6194" width="9.16669" height="9.16669" fill="#B3271A"/>
    <rect x="100.715" y="71.786" width="9.16669" height="9.16669" fill="black"/>
    <rect x="105.298" y="71.786" width="9.16669" height="9.16669" fill="#375BB6"/>
    <rect x="105.298" y="76.3693" width="9.16669" height="9.16669" fill="#F3D74B"/>
    <rect x="100.715" y="76.3693" width="9.16669" height="9.16669" fill="#B3271A"/>
    <rect x="114.465" y="44.2857" width="9.16669" height="9.16669" fill="black"/>
    <rect x="119.048" y="44.2857" width="9.16669" height="9.16669" fill="#375BB6"/>
    <rect x="119.048" y="48.8691" width="9.16669" height="9.16669" fill="#F3D74B"/>
    <rect x="114.465" y="48.8691" width="9.16669" height="9.16669" fill="#B3271A"/>
    <rect x="114.465" y="58.0359" width="9.16669" height="9.16669" fill="black"/>
    <rect x="119.048" y="58.0359" width="9.16669" height="9.16669" fill="#375BB6"/>
    <rect x="119.048" y="62.6194" width="9.16669" height="9.16669" fill="#F3D74B"/>
    <rect x="114.465" y="62.6194" width="9.16669" height="9.16669" fill="#B3271A"/>
    <rect x="114.465" y="58.0359" width="9.16669" height="9.16669" fill="black"/>
    <rect x="119.048" y="58.0359" width="9.16669" height="9.16669" fill="#375BB6"/>
    <rect x="119.048" y="62.6194" width="9.16669" height="9.16669" fill="#F3D74B"/>
    <rect x="114.465" y="62.6194" width="9.16669" height="9.16669" fill="#B3271A"/>
    <rect x="114.465" y="71.786" width="9.16669" height="9.16669" fill="black"/>
    <rect x="119.048" y="71.786" width="9.16669" height="9.16669" fill="#375BB6"/>
    <rect x="119.048" y="76.3693" width="9.16669" height="9.16669" fill="#F3D74B"/>
    <rect x="114.465" y="76.3693" width="9.16669" height="9.16669" fill="#B3271A"/>
    <rect x="128.214" y="44.2857" width="9.16669" height="9.16669" fill="black"/>
    <rect x="132.796" y="44.2857" width="9.16669" height="9.16669" fill="#375BB6"/>
    <rect x="132.796" y="48.8691" width="9.16669" height="9.16669" fill="#F3D74B"/>
    <rect x="128.214" y="48.8691" width="9.16669" height="9.16669" fill="#B3271A"/>
    <rect x="128.214" y="58.0359" width="9.16669" height="9.16669" fill="black"/>
    <rect x="132.796" y="58.0359" width="9.16669" height="9.16669" fill="#375BB6"/>
    <rect x="132.796" y="62.6194" width="9.16669" height="9.16669" fill="#F3D74B"/>
    <rect x="128.214" y="62.6194" width="9.16669" height="9.16669" fill="#B3271A"/>
    <rect x="128.214" y="58.0359" width="9.16669" height="9.16669" fill="black"/>
    <rect x="132.796" y="58.0359" width="9.16669" height="9.16669" fill="#375BB6"/>
    <rect x="132.796" y="62.6194" width="9.16669" height="9.16669" fill="#F3D74B"/>
    <rect x="128.214" y="62.6194" width="9.16669" height="9.16669" fill="#B3271A"/>
    <rect x="128.214" y="71.786" width="9.16669" height="9.16669" fill="black"/>
    <rect x="132.796" y="71.786" width="9.16669" height="9.16669" fill="#375BB6"/>
    <rect x="132.796" y="76.3693" width="9.16669" height="9.16669" fill="#F3D74B"/>
    <rect x="128.214" y="76.3693" width="9.16669" height="9.16669" fill="#B3271A"/>
    <rect x="141.964" y="44.2859" width="9.16669" height="9.16669" fill="black"/>
    <rect x="146.547" y="44.2859" width="9.16669" height="9.16669" fill="#375BB6"/>
    <rect x="146.547" y="48.8694" width="9.16669" height="9.16669" fill="#F3D74B"/>
    <rect x="141.964" y="48.8694" width="9.16669" height="9.16669" fill="#B3271A"/>
    <rect x="141.964" y="58.0358" width="9.16669" height="9.16669" fill="black"/>
    <rect x="146.547" y="58.0358" width="9.16669" height="9.16669" fill="#375BB6"/>
    <rect x="146.547" y="62.6193" width="9.16669" height="9.16669" fill="#F3D74B"/>
    <rect x="141.964" y="62.6193" width="9.16669" height="9.16669" fill="#B3271A"/>
    <rect x="141.964" y="58.0358" width="9.16669" height="9.16669" fill="black"/>
    <rect x="146.547" y="58.0358" width="9.16669" height="9.16669" fill="#375BB6"/>
    <rect x="146.547" y="62.6193" width="9.16669" height="9.16669" fill="#F3D74B"/>
    <rect x="141.964" y="62.6193" width="9.16669" height="9.16669" fill="#B3271A"/>
    <rect x="141.964" y="71.7861" width="9.16669" height="9.16669" fill="black"/>
    <rect x="146.547" y="71.7861" width="9.16669" height="9.16669" fill="#375BB6"/>
    <rect x="146.547" y="76.3694" width="9.16669" height="9.16669" fill="#F3D74B"/>
    <rect x="141.964" y="76.3694" width="9.16669" height="9.16669" fill="#B3271A"/>
    <rect x="45.7148" y="85.5361" width="9.16669" height="9.16669" fill="black"/>
    <rect x="50.2979" y="85.5361" width="9.16669" height="9.16669" fill="#375BB6"/>
    <rect x="50.2979" y="90.1194" width="9.16669" height="9.16669" fill="#F3D74B"/>
    <rect x="45.7148" y="90.1194" width="9.16669" height="9.16669" fill="#B3271A"/>
    <rect x="45.7148" y="99.2861" width="9.16669" height="9.16669" fill="black"/>
    <rect x="50.2979" y="99.2861" width="9.16669" height="9.16669" fill="#375BB6"/>
    <rect x="50.2979" y="103.869" width="9.16669" height="9.16669" fill="#F3D74B"/>
    <rect x="45.7148" y="103.869" width="9.16669" height="9.16669" fill="#B3271A"/>
    <rect x="45.7148" y="99.2861" width="9.16669" height="9.16669" fill="black"/>
    <rect x="50.2979" y="99.2861" width="9.16669" height="9.16669" fill="#375BB6"/>
    <rect x="50.2979" y="103.869" width="9.16669" height="9.16669" fill="#F3D74B"/>
    <rect x="45.7148" y="103.869" width="9.16669" height="9.16669" fill="#B3271A"/>
    <rect x="45.7148" y="113.036" width="9.16669" height="9.16669" fill="black"/>
    <rect x="50.2979" y="113.036" width="9.16669" height="9.16669" fill="#375BB6"/>
    <rect x="50.2979" y="117.619" width="9.16669" height="9.16669" fill="#F3D74B"/>
    <rect x="45.7148" y="117.619" width="9.16669" height="9.16669" fill="#B3271A"/>
    <rect x="59.4639" y="85.5361" width="9.16669" height="9.16669" fill="black"/>
    <rect x="64.0459" y="85.5361" width="9.16669" height="9.16669" fill="#375BB6"/>
    <rect x="64.0459" y="90.1194" width="9.16669" height="9.16669" fill="#F3D74B"/>
    <rect x="59.4639" y="90.1194" width="9.16669" height="9.16669" fill="#B3271A"/>
    <rect x="59.4639" y="99.2861" width="9.16669" height="9.16669" fill="black"/>
    <rect x="64.0459" y="99.2861" width="9.16669" height="9.16669" fill="#375BB6"/>
    <rect x="64.0459" y="103.869" width="9.16669" height="9.16669" fill="#F3D74B"/>
    <rect x="59.4639" y="103.869" width="9.16669" height="9.16669" fill="#B3271A"/>
    <rect x="59.4639" y="99.2861" width="9.16669" height="9.16669" fill="black"/>
    <rect x="64.0459" y="99.2861" width="9.16669" height="9.16669" fill="#375BB6"/>
    <rect x="64.0459" y="103.869" width="9.16669" height="9.16669" fill="#F3D74B"/>
    <rect x="59.4639" y="103.869" width="9.16669" height="9.16669" fill="#B3271A"/>
    <rect x="59.4639" y="113.036" width="9.16669" height="9.16669" fill="black"/>
    <rect x="64.0459" y="113.036" width="9.16669" height="9.16669" fill="#375BB6"/>
    <rect x="64.0459" y="117.619" width="9.16669" height="9.16669" fill="#F3D74B"/>
    <rect x="59.4639" y="117.619" width="9.16669" height="9.16669" fill="#B3271A"/>
    <rect x="73.2139" y="85.5361" width="9.16669" height="9.16669" fill="black"/>
    <rect x="77.7969" y="85.5361" width="9.16669" height="9.16669" fill="#375BB6"/>
    <rect x="77.7969" y="90.1194" width="9.16669" height="9.16669" fill="#F3D74B"/>
    <rect x="73.2139" y="90.1194" width="9.16669" height="9.16669" fill="#B3271A"/>
    <rect x="73.2139" y="99.286" width="9.16669" height="9.16669" fill="black"/>
    <rect x="77.7969" y="99.286" width="9.16669" height="9.16669" fill="#375BB6"/>
    <rect x="77.7969" y="103.869" width="9.16669" height="9.16669" fill="#F3D74B"/>
    <rect x="73.2139" y="103.869" width="9.16669" height="9.16669" fill="#B3271A"/>
    <rect x="73.2139" y="99.286" width="9.16669" height="9.16669" fill="black"/>
    <rect x="77.7969" y="99.286" width="9.16669" height="9.16669" fill="#375BB6"/>
    <rect x="77.7969" y="103.869" width="9.16669" height="9.16669" fill="#F3D74B"/>
    <rect x="73.2139" y="103.869" width="9.16669" height="9.16669" fill="#B3271A"/>
    <rect x="73.2139" y="113.036" width="9.16669" height="9.16669" fill="black"/>
    <rect x="77.7969" y="113.036" width="9.16669" height="9.16669" fill="#375BB6"/>
    <rect x="77.7969" y="117.619" width="9.16669" height="9.16669" fill="#F3D74B"/>
    <rect x="73.2139" y="117.619" width="9.16669" height="9.16669" fill="#B3271A"/>
    <rect x="86.9648" y="85.5361" width="9.16669" height="9.16669" fill="black"/>
    <rect x="91.5479" y="85.5361" width="9.16669" height="9.16669" fill="#375BB6"/>
    <rect x="91.5479" y="90.1194" width="9.16669" height="9.16669" fill="#F3D74B"/>
    <rect x="86.9648" y="90.1194" width="9.16669" height="9.16669" fill="#B3271A"/>
    <rect x="86.9648" y="99.286" width="9.16669" height="9.16669" fill="black"/>
    <rect x="91.5479" y="99.286" width="9.16669" height="9.16669" fill="#375BB6"/>
    <rect x="91.5479" y="103.869" width="9.16669" height="9.16669" fill="#F3D74B"/>
    <rect x="86.9648" y="103.869" width="9.16669" height="9.16669" fill="#B3271A"/>
    <rect x="86.9648" y="99.286" width="9.16669" height="9.16669" fill="black"/>
    <rect x="91.5479" y="99.286" width="9.16669" height="9.16669" fill="#375BB6"/>
    <rect x="91.5479" y="103.869" width="9.16669" height="9.16669" fill="#F3D74B"/>
    <rect x="86.9648" y="103.869" width="9.16669" height="9.16669" fill="#B3271A"/>
    <rect x="86.9648" y="113.036" width="9.16669" height="9.16669" fill="black"/>
    <rect x="91.5479" y="113.036" width="9.16669" height="9.16669" fill="#375BB6"/>
    <rect x="91.5479" y="117.619" width="9.16669" height="9.16669" fill="#F3D74B"/>
    <rect x="86.9648" y="117.619" width="9.16669" height="9.16669" fill="#B3271A"/>
    <rect x="100.715" y="85.5361" width="9.16669" height="9.16669" fill="black"/>
    <rect x="105.298" y="85.5361" width="9.16669" height="9.16669" fill="#375BB6"/>
    <rect x="105.298" y="90.1194" width="9.16669" height="9.16669" fill="#F3D74B"/>
    <rect x="100.715" y="90.1194" width="9.16669" height="9.16669" fill="#B3271A"/>
    <rect x="100.715" y="99.2861" width="9.16669" height="9.16669" fill="black"/>
    <rect x="105.298" y="99.2861" width="9.16669" height="9.16669" fill="#375BB6"/>
    <rect x="105.298" y="103.869" width="9.16669" height="9.16669" fill="#F3D74B"/>
    <rect x="100.715" y="103.869" width="9.16669" height="9.16669" fill="#B3271A"/>
    <rect x="100.715" y="99.2861" width="9.16669" height="9.16669" fill="black"/>
    <rect x="105.298" y="99.2861" width="9.16669" height="9.16669" fill="#375BB6"/>
    <rect x="105.298" y="103.869" width="9.16669" height="9.16669" fill="#F3D74B"/>
    <rect x="100.715" y="103.869" width="9.16669" height="9.16669" fill="#B3271A"/>
    <rect x="100.715" y="113.036" width="9.16669" height="9.16669" fill="black"/>
    <rect x="105.298" y="113.036" width="9.16669" height="9.16669" fill="#375BB6"/>
    <rect x="105.298" y="117.619" width="9.16669" height="9.16669" fill="#F3D74B"/>
    <rect x="100.715" y="117.619" width="9.16669" height="9.16669" fill="#B3271A"/>
    <rect x="114.465" y="85.5361" width="9.16669" height="9.16669" fill="black"/>
    <rect x="119.048" y="85.5361" width="9.16669" height="9.16669" fill="#375BB6"/>
    <rect x="119.048" y="90.1194" width="9.16669" height="9.16669" fill="#F3D74B"/>
    <rect x="114.465" y="90.1194" width="9.16669" height="9.16669" fill="#B3271A"/>
    <rect x="114.465" y="99.2861" width="9.16669" height="9.16669" fill="black"/>
    <rect x="119.048" y="99.2861" width="9.16669" height="9.16669" fill="#375BB6"/>
    <rect x="119.048" y="103.869" width="9.16669" height="9.16669" fill="#F3D74B"/>
    <rect x="114.465" y="103.869" width="9.16669" height="9.16669" fill="#B3271A"/>
    <rect x="114.465" y="99.2861" width="9.16669" height="9.16669" fill="black"/>
    <rect x="119.048" y="99.2861" width="9.16669" height="9.16669" fill="#375BB6"/>
    <rect x="119.048" y="103.869" width="9.16669" height="9.16669" fill="#F3D74B"/>
    <rect x="114.465" y="103.869" width="9.16669" height="9.16669" fill="#B3271A"/>
    <rect x="114.465" y="113.036" width="9.16669" height="9.16669" fill="black"/>
    <rect x="119.048" y="113.036" width="9.16669" height="9.16669" fill="#375BB6"/>
    <rect x="119.048" y="117.619" width="9.16669" height="9.16669" fill="#F3D74B"/>
    <rect x="114.465" y="117.619" width="9.16669" height="9.16669" fill="#B3271A"/>
    <rect x="128.214" y="85.5361" width="9.16669" height="9.16669" fill="black"/>
    <rect x="132.796" y="85.5361" width="9.16669" height="9.16669" fill="#375BB6"/>
    <rect x="132.796" y="90.1194" width="9.16669" height="9.16669" fill="#F3D74B"/>
    <rect x="128.214" y="90.1194" width="9.16669" height="9.16669" fill="#B3271A"/>
    <rect x="128.214" y="99.2861" width="9.16669" height="9.16669" fill="black"/>
    <rect x="132.796" y="99.2861" width="9.16669" height="9.16669" fill="#375BB6"/>
    <rect x="132.796" y="103.869" width="9.16669" height="9.16669" fill="#F3D74B"/>
    <rect x="128.214" y="103.869" width="9.16669" height="9.16669" fill="#B3271A"/>
    <rect x="128.214" y="99.2861" width="9.16669" height="9.16669" fill="black"/>
    <rect x="132.796" y="99.2861" width="9.16669" height="9.16669" fill="#375BB6"/>
    <rect x="132.796" y="103.869" width="9.16669" height="9.16669" fill="#F3D74B"/>
    <rect x="128.214" y="103.869" width="9.16669" height="9.16669" fill="#B3271A"/>
    <rect x="128.214" y="113.036" width="9.16669" height="9.16669" fill="black"/>
    <rect x="132.796" y="113.036" width="9.16669" height="9.16669" fill="#375BB6"/>
    <rect x="132.796" y="117.619" width="9.16669" height="9.16669" fill="#F3D74B"/>
    <rect x="128.214" y="117.619" width="9.16669" height="9.16669" fill="#B3271A"/>
    <rect x="141.964" y="85.5361" width="9.16669" height="9.16669" fill="black"/>
    <rect x="146.547" y="85.5361" width="9.16669" height="9.16669" fill="#375BB6"/>
    <rect x="146.547" y="90.1194" width="9.16669" height="9.16669" fill="#F3D74B"/>
    <rect x="141.964" y="90.1194" width="9.16669" height="9.16669" fill="#B3271A"/>
    <rect x="141.964" y="99.286" width="9.16669" height="9.16669" fill="black"/>
    <rect x="146.547" y="99.286" width="9.16669" height="9.16669" fill="#375BB6"/>
    <rect x="146.547" y="103.869" width="9.16669" height="9.16669" fill="#F3D74B"/>
    <rect x="141.964" y="103.869" width="9.16669" height="9.16669" fill="#B3271A"/>
    <rect x="141.964" y="99.286" width="9.16669" height="9.16669" fill="black"/>
    <rect x="146.547" y="99.286" width="9.16669" height="9.16669" fill="#375BB6"/>
    <rect x="146.547" y="103.869" width="9.16669" height="9.16669" fill="#F3D74B"/>
    <rect x="141.964" y="103.869" width="9.16669" height="9.16669" fill="#B3271A"/>
    <rect x="141.964" y="113.036" width="9.16669" height="9.16669" fill="black"/>
    <rect x="146.547" y="113.036" width="9.16669" height="9.16669" fill="#375BB6"/>
    <rect x="146.547" y="117.619" width="9.16669" height="9.16669" fill="#F3D74B"/>
    <rect x="141.964" y="117.619" width="9.16669" height="9.16669" fill="#B3271A"/>
    <rect x="45.7148" y="113.036" width="9.16669" height="9.16669" fill="black"/>
    <rect x="50.2979" y="113.036" width="9.16669" height="9.16669" fill="#375BB6"/>
    <rect x="50.2979" y="117.619" width="9.16669" height="9.16669" fill="#F3D74B"/>
    <rect x="45.7148" y="117.619" width="9.16669" height="9.16669" fill="#B3271A"/>
    <rect x="45.7148" y="126.786" width="9.16669" height="9.16669" fill="black"/>
    <rect x="50.2979" y="126.786" width="9.16669" height="9.16669" fill="#375BB6"/>
    <rect x="50.2979" y="131.369" width="9.16669" height="9.16669" fill="#F3D74B"/>
    <rect x="45.7148" y="131.369" width="9.16669" height="9.16669" fill="#B3271A"/>
    <rect x="45.7148" y="126.786" width="9.16669" height="9.16669" fill="black"/>
    <rect x="50.2979" y="126.786" width="9.16669" height="9.16669" fill="#375BB6"/>
    <rect x="50.2979" y="131.369" width="9.16669" height="9.16669" fill="#F3D74B"/>
    <rect x="45.7148" y="131.369" width="9.16669" height="9.16669" fill="#B3271A"/>
    <rect x="45.7148" y="140.536" width="9.16669" height="9.16669" fill="black"/>
    <rect x="50.2979" y="140.536" width="9.16669" height="9.16669" fill="#375BB6"/>
    <rect x="50.2979" y="145.119" width="9.16669" height="9.16669" fill="#F3D74B"/>
    <rect x="45.7148" y="145.119" width="9.16669" height="9.16669" fill="#B3271A"/>
    <rect x="59.4639" y="113.036" width="9.16669" height="9.16669" fill="black"/>
    <rect x="64.0459" y="113.036" width="9.16669" height="9.16669" fill="#375BB6"/>
    <rect x="64.0459" y="117.619" width="9.16669" height="9.16669" fill="#F3D74B"/>
    <rect x="59.4639" y="117.619" width="9.16669" height="9.16669" fill="#B3271A"/>
    <rect x="59.4639" y="126.786" width="9.16669" height="9.16669" fill="black"/>
    <rect x="64.0459" y="126.786" width="9.16669" height="9.16669" fill="#375BB6"/>
    <rect x="64.0459" y="131.369" width="9.16669" height="9.16669" fill="#F3D74B"/>
    <rect x="59.4639" y="131.369" width="9.16669" height="9.16669" fill="#B3271A"/>
    <rect x="59.4639" y="126.786" width="9.16669" height="9.16669" fill="black"/>
    <rect x="64.0459" y="126.786" width="9.16669" height="9.16669" fill="#375BB6"/>
    <rect x="64.0459" y="131.369" width="9.16669" height="9.16669" fill="#F3D74B"/>
    <rect x="59.4639" y="131.369" width="9.16669" height="9.16669" fill="#B3271A"/>
    <rect x="59.4639" y="140.536" width="9.16669" height="9.16669" fill="black"/>
    <rect x="64.0459" y="140.536" width="9.16669" height="9.16669" fill="#375BB6"/>
    <rect x="64.0459" y="145.119" width="9.16669" height="9.16669" fill="#F3D74B"/>
    <rect x="59.4639" y="145.119" width="9.16669" height="9.16669" fill="#B3271A"/>
    <rect x="73.2139" y="113.036" width="9.16669" height="9.16669" fill="black"/>
    <rect x="77.7969" y="113.036" width="9.16669" height="9.16669" fill="#375BB6"/>
    <rect x="77.7969" y="117.619" width="9.16669" height="9.16669" fill="#F3D74B"/>
    <rect x="73.2139" y="117.619" width="9.16669" height="9.16669" fill="#B3271A"/>
    <rect x="73.2139" y="126.786" width="9.16669" height="9.16669" fill="black"/>
    <rect x="77.7969" y="126.786" width="9.16669" height="9.16669" fill="#375BB6"/>
    <rect x="77.7969" y="131.369" width="9.16669" height="9.16669" fill="#F3D74B"/>
    <rect x="73.2139" y="131.369" width="9.16669" height="9.16669" fill="#B3271A"/>
    <rect x="73.2139" y="126.786" width="9.16669" height="9.16669" fill="black"/>
    <rect x="77.7969" y="126.786" width="9.16669" height="9.16669" fill="#375BB6"/>
    <rect x="77.7969" y="131.369" width="9.16669" height="9.16669" fill="#F3D74B"/>
    <rect x="73.2139" y="131.369" width="9.16669" height="9.16669" fill="#B3271A"/>
    <rect x="73.2139" y="140.536" width="9.16669" height="9.16669" fill="black"/>
    <rect x="77.7969" y="140.536" width="9.16669" height="9.16669" fill="#375BB6"/>
    <rect x="77.7969" y="145.119" width="9.16669" height="9.16669" fill="#F3D74B"/>
    <rect x="73.2139" y="145.119" width="9.16669" height="9.16669" fill="#B3271A"/>
    <rect x="86.9648" y="113.036" width="9.16669" height="9.16669" fill="black"/>
    <rect x="91.5479" y="113.036" width="9.16669" height="9.16669" fill="#375BB6"/>
    <rect x="91.5479" y="117.619" width="9.16669" height="9.16669" fill="#F3D74B"/>
    <rect x="86.9648" y="117.619" width="9.16669" height="9.16669" fill="#B3271A"/>
    <rect x="86.9648" y="126.786" width="9.16669" height="9.16669" fill="black"/>
    <rect x="91.5479" y="126.786" width="9.16669" height="9.16669" fill="#375BB6"/>
    <rect x="91.5479" y="131.369" width="9.16669" height="9.16669" fill="#F3D74B"/>
    <rect x="86.9648" y="131.369" width="9.16669" height="9.16669" fill="#B3271A"/>
    <rect x="86.9648" y="126.786" width="9.16669" height="9.16669" fill="black"/>
    <rect x="91.5479" y="126.786" width="9.16669" height="9.16669" fill="#375BB6"/>
    <rect x="91.5479" y="131.369" width="9.16669" height="9.16669" fill="#F3D74B"/>
    <rect x="86.9648" y="131.369" width="9.16669" height="9.16669" fill="#B3271A"/>
    <rect x="86.9648" y="140.536" width="9.16669" height="9.16669" fill="black"/>
    <rect x="91.5479" y="140.536" width="9.16669" height="9.16669" fill="#375BB6"/>
    <rect x="91.5479" y="145.119" width="9.16669" height="9.16669" fill="#F3D74B"/>
    <rect x="86.9648" y="145.119" width="9.16669" height="9.16669" fill="#B3271A"/>
    <rect x="100.715" y="113.036" width="9.16669" height="9.16669" fill="black"/>
    <rect x="105.298" y="113.036" width="9.16669" height="9.16669" fill="#375BB6"/>
    <rect x="105.298" y="117.619" width="9.16669" height="9.16669" fill="#F3D74B"/>
    <rect x="100.715" y="117.619" width="9.16669" height="9.16669" fill="#B3271A"/>
    <rect x="100.715" y="126.786" width="9.16669" height="9.16669" fill="black"/>
    <rect x="105.298" y="126.786" width="9.16669" height="9.16669" fill="#375BB6"/>
    <rect x="105.298" y="131.369" width="9.16669" height="9.16669" fill="#F3D74B"/>
    <rect x="100.715" y="131.369" width="9.16669" height="9.16669" fill="#B3271A"/>
    <rect x="100.715" y="126.786" width="9.16669" height="9.16669" fill="black"/>
    <rect x="105.298" y="126.786" width="9.16669" height="9.16669" fill="#375BB6"/>
    <rect x="105.298" y="131.369" width="9.16669" height="9.16669" fill="#F3D74B"/>
    <rect x="100.715" y="131.369" width="9.16669" height="9.16669" fill="#B3271A"/>
    <rect x="100.715" y="140.536" width="9.16669" height="9.16669" fill="black"/>
    <rect x="105.298" y="140.536" width="9.16669" height="9.16669" fill="#375BB6"/>
    <rect x="105.298" y="145.119" width="9.16669" height="9.16669" fill="#F3D74B"/>
    <rect x="100.715" y="145.119" width="9.16669" height="9.16669" fill="#B3271A"/>
    <rect x="114.465" y="113.036" width="9.16669" height="9.16669" fill="black"/>
    <rect x="119.048" y="113.036" width="9.16669" height="9.16669" fill="#375BB6"/>
    <rect x="119.048" y="117.619" width="9.16669" height="9.16669" fill="#F3D74B"/>
    <rect x="114.465" y="117.619" width="9.16669" height="9.16669" fill="#B3271A"/>
    <rect x="114.465" y="126.786" width="9.16669" height="9.16669" fill="black"/>
    <rect x="119.048" y="126.786" width="9.16669" height="9.16669" fill="#375BB6"/>
    <rect x="119.048" y="131.369" width="9.16669" height="9.16669" fill="#F3D74B"/>
    <rect x="114.465" y="131.369" width="9.16669" height="9.16669" fill="#B3271A"/>
    <rect x="114.465" y="126.786" width="9.16669" height="9.16669" fill="black"/>
    <rect x="119.048" y="126.786" width="9.16669" height="9.16669" fill="#375BB6"/>
    <rect x="119.048" y="131.369" width="9.16669" height="9.16669" fill="#F3D74B"/>
    <rect x="114.465" y="131.369" width="9.16669" height="9.16669" fill="#B3271A"/>
    <rect x="114.465" y="140.536" width="9.16669" height="9.16669" fill="black"/>
    <rect x="119.048" y="140.536" width="9.16669" height="9.16669" fill="#375BB6"/>
    <rect x="119.048" y="145.119" width="9.16669" height="9.16669" fill="#F3D74B"/>
    <rect x="114.465" y="145.119" width="9.16669" height="9.16669" fill="#B3271A"/>
    <rect x="128.214" y="113.036" width="9.16669" height="9.16669" fill="black"/>
    <rect x="132.796" y="113.036" width="9.16669" height="9.16669" fill="#375BB6"/>
    <rect x="132.796" y="117.619" width="9.16669" height="9.16669" fill="#F3D74B"/>
    <rect x="128.214" y="117.619" width="9.16669" height="9.16669" fill="#B3271A"/>
    <rect x="128.214" y="126.786" width="9.16669" height="9.16669" fill="black"/>
    <rect x="132.796" y="126.786" width="9.16669" height="9.16669" fill="#375BB6"/>
    <rect x="132.796" y="131.369" width="9.16669" height="9.16669" fill="#F3D74B"/>
    <rect x="128.214" y="131.369" width="9.16669" height="9.16669" fill="#B3271A"/>
    <rect x="128.214" y="126.786" width="9.16669" height="9.16669" fill="black"/>
    <rect x="132.796" y="126.786" width="9.16669" height="9.16669" fill="#375BB6"/>
    <rect x="132.796" y="131.369" width="9.16669" height="9.16669" fill="#F3D74B"/>
    <rect x="128.214" y="131.369" width="9.16669" height="9.16669" fill="#B3271A"/>
    <rect x="128.214" y="140.536" width="9.16669" height="9.16669" fill="black"/>
    <rect x="132.796" y="140.536" width="9.16669" height="9.16669" fill="#375BB6"/>
    <rect x="132.796" y="145.119" width="9.16669" height="9.16669" fill="#F3D74B"/>
    <rect x="128.214" y="145.119" width="9.16669" height="9.16669" fill="#B3271A"/>
    <rect x="141.964" y="113.036" width="9.16669" height="9.16669" fill="black"/>
    <rect x="146.547" y="113.036" width="9.16669" height="9.16669" fill="#375BB6"/>
    <rect x="146.547" y="117.619" width="9.16669" height="9.16669" fill="#F3D74B"/>
    <rect x="141.964" y="117.619" width="9.16669" height="9.16669" fill="#B3271A"/>
    <rect x="141.964" y="126.786" width="9.16669" height="9.16669" fill="black"/>
    <rect x="146.547" y="126.786" width="9.16669" height="9.16669" fill="#375BB6"/>
    <rect x="146.547" y="131.369" width="9.16669" height="9.16669" fill="#F3D74B"/>
    <rect x="141.964" y="131.369" width="9.16669" height="9.16669" fill="#B3271A"/>
    <rect x="141.964" y="126.786" width="9.16669" height="9.16669" fill="black"/>
    <rect x="146.547" y="126.786" width="9.16669" height="9.16669" fill="#375BB6"/>
    <rect x="146.547" y="131.369" width="9.16669" height="9.16669" fill="#F3D74B"/>
    <rect x="141.964" y="131.369" width="9.16669" height="9.16669" fill="#B3271A"/>
    <rect x="141.964" y="140.536" width="9.16669" height="9.16669" fill="black"/>
    <rect x="146.547" y="140.536" width="9.16669" height="9.16669" fill="#375BB6"/>
    <rect x="146.547" y="145.12" width="9.16669" height="9.16669" fill="#F3D74B"/>
    <rect x="141.964" y="145.12" width="9.16669" height="9.16669" fill="#B3271A"/>
</svg>
